<svg xmlns="http://www.w3.org/2000/svg" viewBox="0 0 327.83 15.88"><defs><style>.cls-1{fill:#a56799;}</style></defs><title>LD_m2p2</title><g id="Calque_2" data-name="Calque 2"><g id="Calque_1-2" data-name="Calque 1"><path id="LD_m2p2" class="cls-1" d="M40.67,15.46c-4.14-.85-7.41-2.72-16-4.67h0C12.34,8,0,7.88,0,7.46S22,6.09,30.67,4.12c3.54-.79,5.66-1.5,5.66-1.5,4.29-1.41,4.59-2.16,7-2.5a14.75,14.75,0,0,1,7.67,1c0,.07-.83,0-.83,0s8.25.43,18.66.84c15.36.6,26.58.84,33.34,1,32.08.77,32,1.53,60.66,2.16,11.4.26,9,.08,40.67.5,0,0,22.36.3,43.33.67,36.94.65,81,1.42,81,2.17S282,9.75,207,10.62c-47.16.55-44.66.39-53.5.67-63.4,2.05-95.11,3.07-102.5,4C47.65,15.71,44.74,16.29,40.67,15.46Z"/></g></g></svg>