<svg xmlns="http://www.w3.org/2000/svg" xmlns:xlink="http://www.w3.org/1999/xlink" viewBox="0 0 343.72 13.75"><defs><style>.cls-1{fill:url(#Dégradé_sans_nom_52);}</style><linearGradient id="Dégradé_sans_nom_52" x1="-757.33" y1="6.88" x2="-413.62" y2="6.88" gradientTransform="matrix(-1, 0, 0, 1, -413.62, 0)" gradientUnits="userSpaceOnUse"><stop offset="0" stop-color="#080808"/><stop offset="0" stop-color="#152513"/><stop offset="0" stop-color="#22441f"/><stop offset="0" stop-color="#2e6029"/><stop offset="0" stop-color="#387632"/><stop offset="0" stop-color="#3f8738"/><stop offset="0" stop-color="#44923d"/><stop offset="0" stop-color="#47993f"/><stop offset="0" stop-color="#489b40"/><stop offset="0.15" stop-color="#62ad54"/><stop offset="0.46" stop-color="#a3db88"/><stop offset="0.46" stop-color="#a3db88"/><stop offset="0.94" stop-color="#b4f679"/></linearGradient></defs><title>LD_m4</title><g id="Calque_2" data-name="Calque 2"><g id="Calque_1-2" data-name="Calque 1"><path id="LD_m4" class="cls-1" d="M343,1c1.11,1.51.65,4.42.37,6.17a8.44,8.44,0,0,1-1.7,4.58c-1.47,1.6-3.57,1.57-5.6,1.5-6.31-.21-9.47-.31-12-.58-1.55-.17-4.86-.17-11.42-.17-13,0-18.57.16-25.79.17-14.54,0-13.95-.66-30.5-.75-8.45,0-14.78.09-21.88.25-15.45.35-21.34.81-31.75,1.16-22.5.78-40.18.2-48.11-.08-22.16-.77-19.53-1.78-38.23-2.17-15.86-.32-19.34.37-44,.17-15.75-.13-11.83-.39-26.67-.5,0,0-14.09-.1-38.75-1.67-1.87-.11-7-.45-7-1C0,7.22,13.79,6.26,13.78,6s-3,.2-7.15-.08c-1-.07-6.1-.42-6.11-1,0-.83,10.09-2.07,18.86-2.67,14.08-1,21,0,36,.33,5,.12,2.11,0,31.46-.33,21.79-.22,32.83-.33,39.85-.17,17,.39,17.18,1.09,35.29,1.5,6.56.15,18.18.4,33.08,0,17.61-.47,18.79-1.27,37-1.75,13.29-.34,24.37-.22,29.32-.16,18.72.22,20.7.87,32.64.41,9.9-.38,11.85-1,19.82-.75C325.23,1.66,326,3,332,1.78,337.11.75,341.36-1.21,343,1Z"/></g></g></svg>