<svg xmlns="http://www.w3.org/2000/svg" viewBox="0 0 345.42 15.46"><defs><style>.cls-1{fill:#229df9;}</style></defs><title>LD_M3P3</title><g id="Calque_2" data-name="Calque 2"><g id="Calque_1-2" data-name="Calque 1"><path id="LD_M3P3" class="cls-1" d="M345.34.09c.68.78-2.78,6-7.46,9.5-8.46,6.3-18.55,5.08-28.75,4.5-12.58-.71-25.21,1.35-37.79.67-13.14-.71,7.48.87-143.34-.33-8.08-.07-26.72-.16-64-.34-23.53-.11-24.67-.1-27.62,0-17,.61-36.06,2.43-36.38.5-.08-.5,1.18-.77,3.88-3.5C5.81,9.14,5.74,8.69,6.75,8c2.12-1.51,4.45-1,8.38-.75,3.08.2,6.17-.12,9.25,0C31.3,7.48,35.8,7,43.75,6.59c9.36-.46,20.33-.34,42.25-.12,10,.1,17.31.24,19.67.29,45.65.88,101.49.29,109.46.21,27.84-.31,32.35-.65,48.25-.38,12,.21,24.1-.2,36.12.5a165,165,0,0,0,17.38,0c2.13-.11,4.46-.28,7.25-.62a58.82,58.82,0,0,0,11.62-2.25C342,2.18,344.79-.54,345.34.09Z"/></g></g></svg>