<svg xmlns="http://www.w3.org/2000/svg" viewBox="0 0 327.83 15.88"><defs><style>.cls-1{fill:#a56799;}</style></defs><title>LG_m2p2</title><g id="Calque_2" data-name="Calque 2"><g id="Calque_1-2" data-name="Calque 1"><path id="LG_m2p2" class="cls-1" d="M287.17,15.46c4.14-.85,7.4-2.72,16-4.67h0C315.49,8,327.84,7.88,327.83,7.46s-22-1.37-30.66-3.34c-3.54-.79-5.67-1.5-5.67-1.5-4.28-1.41-4.59-2.16-7-2.5a14.75,14.75,0,0,0-7.67,1,3.37,3.37,0,0,0,.84,0S269.41,1.55,259,2c-15.36.6-26.58.84-33.33,1-32.09.77-32,1.53-60.67,2.16-11.4.26-9,.08-40.67.5,0,0-22.36.3-43.33.67C44.06,6.94,0,7.71,0,8.46s45.8,1.29,120.83,2.16c47.16.55,44.66.39,53.5.67,63.41,2.05,95.11,3.07,102.5,4C280.18,15.71,283.1,16.29,287.17,15.46Z"/></g></g></svg>