<svg xmlns="http://www.w3.org/2000/svg" xmlns:xlink="http://www.w3.org/1999/xlink" viewBox="0 0 343.72 13.75"><defs><style>.cls-1{fill:url(#Dégradé_sans_nom_52);}</style><linearGradient id="Dégradé_sans_nom_52" y1="6.88" x2="343.72" y2="6.88" gradientUnits="userSpaceOnUse"><stop offset="0" stop-color="#080808"/><stop offset="0" stop-color="#152513"/><stop offset="0" stop-color="#22441f"/><stop offset="0" stop-color="#2e6029"/><stop offset="0" stop-color="#387632"/><stop offset="0" stop-color="#3f8738"/><stop offset="0" stop-color="#44923d"/><stop offset="0" stop-color="#47993f"/><stop offset="0" stop-color="#489b40"/><stop offset="0.15" stop-color="#62ad54"/><stop offset="0.46" stop-color="#a3db88"/><stop offset="0.46" stop-color="#a3db88"/><stop offset="0.94" stop-color="#b4f679"/></linearGradient></defs><title>LG_m4</title><g id="Calque_2" data-name="Calque 2"><g id="Calque_1-2" data-name="Calque 1"><path id="LG_m4" class="cls-1" d="M.71,1C-.41,2.54.06,5.45.34,7.2A8.5,8.5,0,0,0,2,11.78c1.48,1.6,3.58,1.57,5.6,1.5,6.32-.21,9.48-.31,12-.58,1.55-.17,4.86-.17,11.42-.17,13,0,18.57.16,25.78.17,14.55,0,14-.66,30.5-.75,8.45,0,14.79.09,21.88.25,15.46.35,21.35.81,31.76,1.16,22.5.78,40.18.2,48.1-.08,22.17-.77,19.53-1.78,38.24-2.17,15.86-.32,19.34.37,44,.17,15.75-.13,11.83-.39,26.67-.5,0,0,14.08-.1,38.75-1.67,1.87-.11,7-.45,7-1,0-.89-13.79-1.85-13.78-2.08s3,.2,7.15-.08c1-.07,6.09-.42,6.11-1,0-.83-10.09-2.07-18.86-2.67-14.09-1-21,0-36,.33-5,.12-2.11,0-31.46-.33C235.06,2.06,224,2,217,2.11c-17,.39-17.17,1.09-35.28,1.5-6.57.15-18.18.4-33.08,0-17.61-.47-18.79-1.27-37-1.75-13.29-.34-24.38-.22-29.33-.16-18.71.22-20.69.87-32.63.41-9.9-.38-11.86-1-19.82-.75C18.49,1.66,17.7,3,11.76,1.78,6.61.75,2.35-1.21.71,1Z"/></g></g></svg>