<svg xmlns="http://www.w3.org/2000/svg" viewBox="0 0 345.42 15.46"><defs><style>.cls-1{fill:#0228dd;}</style></defs><title>LG_M3P1</title><g id="Calque_2" data-name="Calque 2"><g id="Calque_1-2" data-name="Calque 1"><path id="LG_M3P1" class="cls-1" d="M.09.09c-.68.78,2.78,6,7.45,9.5,8.47,6.3,18.55,5.08,28.75,4.5,12.58-.71,25.21,1.35,37.8.67,13.13-.71-7.48.87,143.33-.33,8.08-.07,26.72-.16,64-.34C305,14,306.09,14,309,14.09c17,.61,36.07,2.43,36.38.5.08-.5-1.18-.77-3.88-3.5-1.93-1.95-1.86-2.4-2.87-3.12-2.11-1.51-4.45-1-8.38-.75-3.07.2-6.17-.12-9.25,0-6.92.26-11.42-.24-19.37-.63-9.36-.46-20.32-.34-42.25-.12-10,.1-17.31.24-19.67.29-45.65.88-101.49.29-109.46.21C102.46,6.66,97.94,6.32,82,6.59c-12,.21-24.1-.2-36.12.5a165,165,0,0,1-17.38,0c-2.12-.11-4.46-.28-7.25-.62A58.82,58.82,0,0,1,9.67,4.22C3.46,2.18.63-.54.09.09Z"/></g></g></svg>