<svg xmlns="http://www.w3.org/2000/svg" viewBox="0 0 286.76 11.97"><defs><style>.cls-1{fill:#3d1319;}</style></defs><title>ligneDroite</title><g id="Calque_2" data-name="Calque 2"><g id="Calque_1-2" data-name="Calque 1"><path id="ligneDroite" class="cls-1" d="M7,1.19c-1.44,0-4.91.13-6.33,2.33a5.1,5.1,0,0,0,.67,6c1.65,1.59,4.42,1.13,5.33,1,9.45-1.39,19.18,1.52,28.67.33,29.28-3.65,145.93-.55,154-.33,1,0,16.46.24,47.33.67,9.67.13,19.37-1.2,29-.34,9.2.83,18.47,2.6,20.67-1.33a5.6,5.6,0,0,0,0-4.33c-3.32-9.6-59-3-100.34-2.67C157.27,2.76,22.73.9,7,1.19Z"/></g></g></svg>