<svg xmlns="http://www.w3.org/2000/svg" viewBox="0 0 286.76 11.97"><defs><style>.cls-1{fill:#3d1319;}</style></defs><title>LigneGauche</title><g id="Calque_2" data-name="Calque 2"><g id="Calque_1-2" data-name="Calque 1"><path id="LigneGauche" class="cls-1" d="M279.74,1.19c1.45,0,4.92.13,6.34,2.33a5.12,5.12,0,0,1-.67,6c-1.65,1.59-4.42,1.13-5.33,1-9.46-1.39-19.19,1.52-28.67.33-29.28-3.65-145.93-.55-154-.33-1,0-16.47.24-47.33.67-9.67.13-19.37-1.2-29-.34-9.2.83-18.47,2.6-20.67-1.33a5.6,5.6,0,0,1,0-4.33c3.32-9.6,59-3,100.33-2.67C129.49,2.76,264,.9,279.74,1.19Z"/></g></g></svg>